<?xml version="1.0" encoding="utf-8"?>
<!-- Generator: Adobe Illustrator 19.0.0, SVG Export Plug-In . SVG Version: 6.00 Build 0)  -->
<svg version="1.1" id="Layer_1" xmlns="http://www.w3.org/2000/svg" xmlns:xlink="http://www.w3.org/1999/xlink" x="0px" y="0px"
	 viewBox="0 0 512 512" style="enable-background:new 0 0 512 512;" xml:space="preserve">
<style type="text/css">
	.st0{fill:#7E4EA3;}
	.st1{fill:#FFFFFF;}
</style>
<g id="XMLID_1_">
	<circle id="XMLID_3_" class="st0" cx="256" cy="256" r="256"/>
	<path id="XMLID_8_" class="st1" d="M256,249.5c17.7,0,31.7-14,31.7-29.8c0-16.8-14-29.8-31.7-29.8s-31.7,14-31.7,29.8
		S238.3,249.5,256,249.5z M256,143.4c-43.8,0-80.1,33.5-80.1,75.4c0,20.5,8.4,39.1,22.3,52.1c3.7-5.6,9.3-12.1,16.8-15.8
		c-9.3-9.3-14.9-22.3-14.9-36.3c0-28.9,25.1-53.1,55.9-53.1s55.9,23.3,55.9,53.1c0,14-5.6,27-14.9,36.3c7.4,4.7,13,10.2,16.8,15.8
		c14-14,22.3-31.7,22.3-52.1C336.1,177.8,299.8,143.4,256,143.4z M256,98.7c-70.7,0-127.5,54-127.5,121c0,43.8,24.2,81.9,61.4,102.4
		c-0.9-5.6-0.9-11.2-0.9-16.8c0,0,0-4.7,0.9-11.2c-22.3-17.7-37.2-44.7-37.2-75.4c0-54,46.5-97.7,104.3-97.7s103.3,43.8,103.3,97.7
		c0,29.8-14.9,57.7-37.2,75.4c0.9,6.5,0.9,11.2,0.9,11.2c0,5.6-0.9,11.2-0.9,16.8c36.3-21.4,61.4-59.6,61.4-102.4
		C383.5,152.7,326.7,98.7,256,98.7z M256,264.4c-24.2,0-43.8,18.6-43.8,41.9S231.8,404,256,404c24.2,0,43.8-75.4,43.8-97.7
		C299.8,283,280.2,264.4,256,264.4z"/>
</g>
</svg>
